<svg width="46" height="46" fill="none" xmlns="http://www.w3.org/2000/svg"><g clip-path="url(#clip0)" fill="#10CFC8"><path d="M40.594.069a.898.898 0 00-.98.194L36.8 3.078 33.985.263a.898.898 0 00-1.27 0L29.9 3.078 27.085.263a.899.899 0 00-1.27 0L23 3.078 20.185.263a.899.899 0 00-1.27 0L16.1 3.078 13.285.263a.899.899 0 00-1.27 0L9.2 3.078 6.385.263A.898.898 0 004.852.9v17.654a.898.898 0 001.796 0V3.068l1.917 1.916a.899.899 0 001.27 0l2.815-2.815 2.815 2.815a.899.899 0 001.27 0l2.815-2.815 2.814 2.815a.9.9 0 001.271 0l2.815-2.815 2.815 2.815a.898.898 0 001.27 0l2.815-2.815 2.814 2.815a.899.899 0 001.271 0l1.916-1.916v39.865l-1.916-1.917a.9.9 0 00-1.27 0l-2.815 2.815-2.815-2.815a.9.9 0 00-1.27 0l-2.815 2.815-2.815-2.815a.899.899 0 00-1.27 0l-2.815 2.815-2.815-2.815a.899.899 0 00-1.27 0l-2.815 2.815-2.815-2.815a.899.899 0 00-1.27 0l-1.916 1.916V26.953a.898.898 0 00-1.797 0v18.149a.899.899 0 001.533.635L9.2 42.922l2.815 2.815a.899.899 0 001.27 0l2.815-2.815 2.815 2.815a.899.899 0 001.27 0L23 42.922l2.815 2.815a.899.899 0 001.27 0l2.815-2.815 2.815 2.815a.899.899 0 001.27 0l2.815-2.815 2.815 2.815a.898.898 0 001.533-.635V.899a.899.899 0 00-.554-.83z"/><path d="M23.011 14.5c-1.158 0-2.1-.817-2.1-1.822 0-1.006.942-1.824 2.1-1.824 1.158 0 2.1.819 2.1 1.824a.899.899 0 001.798 0c0-1.71-1.282-3.144-3-3.522V8.27a.898.898 0 00-1.796 0v.886c-1.717.378-3 1.813-3 3.522 0 1.996 1.75 3.62 3.898 3.62 1.158 0 2.1.818 2.1 1.823s-.942 1.823-2.1 1.823c-1.158 0-2.1-.818-2.1-1.823a.899.899 0 00-1.797 0c0 1.709 1.282 3.144 2.999 3.522v.718a.899.899 0 001.797 0v-.718c1.717-.378 2.999-1.813 2.999-3.522 0-1.996-1.749-3.62-3.898-3.62zm7.284 21.761a.901.901 0 00-1.27 0 .899.899 0 101.27 0zm-4.561-.264h-9.371a.898.898 0 000 1.797h9.371a.898.898 0 000-1.797zm3.926-5.39H16.363a.898.898 0 000 1.797H29.66a.899.899 0 000-1.797zm0-5.391H16.363a.898.898 0 000 1.797H29.66a.898.898 0 100-1.797zM6.385 22.365a.905.905 0 00-.635-.263.905.905 0 00-.635.263.905.905 0 00-.263.635c0 .236.096.468.263.635a.905.905 0 00.635.263.905.905 0 00.635-.263.905.905 0 00.263-.635.905.905 0 00-.263-.635z"/></g><defs><clipPath id="clip0"><path fill="#fff" d="M0 0h46v46H0z"/></clipPath></defs></svg>