<svg width="50" height="50" fill="none" xmlns="http://www.w3.org/2000/svg"><g clip-path="url(#clip0)" fill="#10CFC8"><path d="M47.24 27.543A17.88 17.88 0 0050 17.97C50 8.06 41.94 0 32.033 0c-3.319 0-6.561.912-9.377 2.638a.976.976 0 101.02 1.665 15.98 15.98 0 018.357-2.35c8.831 0 16.016 7.185 16.016 16.016 0 3.203-.942 6.293-2.725 8.938a.977.977 0 00.027 1.13l1.07 3.994-4.295-1.151a.976.976 0 00-.819.148 15.906 15.906 0 01-9.274 2.956 15.94 15.94 0 01-5.547-.989 13.528 13.528 0 00-9.48-9.478 15.949 15.949 0 01-.988-5.548c0-2.992.83-5.909 2.399-8.436a.977.977 0 10-1.66-1.03 17.926 17.926 0 00-2.693 9.466c0 1.756.252 3.481.75 5.144-.44-.043-.885-.066-1.336-.066-7.43 0-13.476 6.046-13.476 13.477 0 2.666.771 5.227 2.234 7.433L1.19 47.858a.977.977 0 001.196 1.196l3.998-1.07A13.417 13.417 0 0013.477 50c2.567 0 5.064-.725 7.22-2.096a.977.977 0 00-1.047-1.648 11.486 11.486 0 01-6.173 1.79c-2.285 0-4.493-.667-6.387-1.93a.976.976 0 00-.794-.131l-2.782.745.724-2.702a.976.976 0 00-.148-.82 11.444 11.444 0 01-2.136-6.685C1.954 30.17 7.124 25 13.477 25c6.354 0 11.524 5.17 11.524 11.523a11.5 11.5 0 01-.694 3.948.977.977 0 001.835.669 13.434 13.434 0 00.746-5.951 17.93 17.93 0 005.144.748c3.601 0 7.057-1.054 10.024-3.053l5.492 1.471a.977.977 0 001.197-1.196l-1.505-5.616z"/><path d="M37.066 20.048h-9.947a.977.977 0 00-.976.977c0 3.28 2.669 5.95 5.95 5.95 3.28 0 5.95-2.67 5.95-5.95a.977.977 0 00-.977-.977zm-4.974 4.974a4.004 4.004 0 01-3.876-3.02h7.753a4.005 4.005 0 01-3.877 3.02zm7.604-10.392a.977.977 0 00-1.344-.319l-.127.08a.976.976 0 101.027 1.66l.125-.077a.977.977 0 00.32-1.343zm-13.419 0a.977.977 0 00-1.344-.319l-.127.08a.976.976 0 101.027 1.66l.125-.077a.977.977 0 00.32-1.343zM8.796 35.833a.984.984 0 00-.69-.286.984.984 0 00-.691.286.984.984 0 00-.286.69c0 .257.104.51.286.69a.984.984 0 00.69.287.984.984 0 00.69-.286.984.984 0 00.287-.69.984.984 0 00-.286-.691zm5.371 0a.984.984 0 00-.69-.286.984.984 0 00-.69.286.984.984 0 00-.287.69c0 .257.104.51.286.69a.984.984 0 00.69.287.984.984 0 00.691-.286.984.984 0 00.286-.69.984.984 0 00-.286-.691zm5.371 0a.984.984 0 00-.69-.286.984.984 0 00-.69.286.984.984 0 00-.287.69c0 .257.105.51.286.69a.984.984 0 00.69.287.984.984 0 00.691-.286.984.984 0 00.286-.69.984.984 0 00-.286-.691zm4.372 7.832a.984.984 0 00-.691-.286.982.982 0 00-.69.286.984.984 0 00-.287.69c0 .257.105.509.286.69a.982.982 0 00.69.287.984.984 0 00.691-.286.984.984 0 00.286-.69.984.984 0 00-.286-.691zM20.74 5.23a.981.981 0 00-1.38 0 .98.98 0 000 1.382.981.981 0 001.38 0 .984.984 0 00.285-.69.986.986 0 00-.286-.692z"/></g><defs><clipPath id="clip0"><path fill="#fff" d="M0 0h50v50H0z"/></clipPath></defs></svg>