<svg width="48" height="48" fill="none" xmlns="http://www.w3.org/2000/svg"><path d="M37.5 14.25H24a.937.937 0 100 1.875h13.5a.938.938 0 000-1.875zm-3.28 4.775a.944.944 0 00-.663-.275c-.246 0-.488.1-.663.275a.944.944 0 00-.274.663c0 .246.1.488.274.662a.945.945 0 00.663.275c.247 0 .489-.1.663-.275a.944.944 0 00.275-.663.94.94 0 00-.275-.662zM24.662 4.306a.944.944 0 00-.663-.275c-.246 0-.488.1-.663.275a.944.944 0 00-.274.663c0 .246.1.488.274.663a.945.945 0 00.663.274c.247 0 .489-.1.663-.274a.944.944 0 00.274-.663c0-.247-.1-.489-.274-.663zm4.951 14.444H24a.937.937 0 100 1.875h5.613a.938.938 0 000-1.875zm7.887 5.625H24a.937.937 0 100 1.875h13.5a.938.938 0 000-1.875zm-3.28 4.775a.944.944 0 00-.663-.275c-.246 0-.488.1-.663.275a.944.944 0 00-.274.663c0 .246.1.488.274.662a.945.945 0 00.663.275c.247 0 .489-.1.663-.275a.944.944 0 00.275-.663.94.94 0 00-.275-.662zm-4.607-.275H24a.937.937 0 100 1.875h5.613a.938.938 0 000-1.875zM37.5 34.5H24a.937.937 0 100 1.875h13.5a.938.938 0 000-1.875zm-3.28 4.775a.944.944 0 00-.663-.275c-.246 0-.488.1-.663.275a.944.944 0 00-.274.663c0 .246.1.488.274.662a.945.945 0 00.663.275c.247 0 .489-.1.663-.275a.944.944 0 00.275-.663.94.94 0 00-.275-.662zM29.613 39H24a.937.937 0 100 1.875h5.613a.938.938 0 000-1.875z" fill="#10CFC8"/><path d="M39.304 3.656h-7.16a5.744 5.744 0 00-3.974-1.594h-.822A3.762 3.762 0 0024 0c-1.431 0-2.72.82-3.349 2.063h-.823c-1.54 0-2.938.607-3.973 1.593h-7.16a4.576 4.576 0 00-4.571 4.571V43.43c0 2.52 2.05 4.571 4.571 4.571h30.608c2.52 0 4.57-2.05 4.57-4.571V8.227c0-2.52-2.05-4.57-4.57-4.57zm-19.476.281h1.461a.937.937 0 00.904-.687A1.88 1.88 0 0124 1.875c.84 0 1.583.565 1.807 1.375a.938.938 0 00.904.687h1.459c2.035 0 3.71 1.57 3.877 3.563H15.95a3.896 3.896 0 013.877-3.563zM42 43.43a2.7 2.7 0 01-2.696 2.696H8.696A2.7 2.7 0 016 43.43V8.227a2.7 2.7 0 012.696-2.696h5.845a5.732 5.732 0 00-.479 2.297v.61c0 .517.42.937.938.937h17.998c.518 0 .938-.42.938-.937v-.61c0-.816-.172-1.592-.48-2.297h5.848A2.7 2.7 0 0142 8.227V43.43z" fill="#10CFC8"/><path d="M18.038 14.025a.938.938 0 00-1.326 0l-4.008 4.008-1.235-1.235a.938.938 0 00-1.326 1.326l1.898 1.898a.934.934 0 001.325 0l4.672-4.671a.938.938 0 000-1.326zM15.75 34.5h-4.5a.937.937 0 00-.938.938v4.5c0 .517.42.937.938.937h4.5c.518 0 .938-.42.938-.938v-4.5a.937.937 0 00-.938-.937zm-.938 4.5h-2.624v-2.625h2.624V39zm.938-14.625h-4.5a.937.937 0 00-.938.938v4.5c0 .517.42.937.938.937h4.5c.518 0 .938-.42.938-.938v-4.5a.937.937 0 00-.938-.937zm-.938 4.5h-2.624V26.25h2.624v2.625z" fill="#10CFC8"/></svg>