<svg width="44" height="44" fill="none" xmlns="http://www.w3.org/2000/svg"><g clip-path="url(#clip0)" fill="#10CFC8"><path d="M38.5 5.989a.86.86 0 00.858-.86V3.611c0-1.99-1.619-3.61-3.609-3.61H8.25a3.613 3.613 0 00-3.608 3.61v6.037H2.92a1.204 1.204 0 01.001-2.406.86.86 0 000-1.719A2.925 2.925 0 000 8.445a2.925 2.925 0 002.922 2.922H4.64v11.848H2.92a1.204 1.204 0 01.001-2.406.86.86 0 100-1.719A2.925 2.925 0 000 22.012a2.925 2.925 0 002.922 2.922H4.64v11.848H2.92a1.204 1.204 0 01.001-2.406.86.86 0 000-1.719A2.925 2.925 0 000 35.579a2.925 2.925 0 002.922 2.922H4.64v1.89c0 1.99 1.619 3.61 3.609 3.61h27.5c1.99 0 3.608-1.62 3.608-3.61V28.163a.86.86 0 00-1.718 0v12.228c0 1.043-.848 1.89-1.89 1.89H8.25a1.893 1.893 0 01-1.89-1.89v-1.89h2.076a2.925 2.925 0 002.922-2.922 2.925 2.925 0 00-2.922-2.922H8.35a.86.86 0 000 1.719h.086c.663 0 1.203.54 1.203 1.203s-.54 1.203-1.203 1.203H6.359V24.934h2.077a2.925 2.925 0 002.922-2.922 2.925 2.925 0 00-2.922-2.922H8.35a.86.86 0 000 1.72h.086c.663 0 1.203.539 1.203 1.202 0 .664-.54 1.203-1.203 1.203H6.359V11.367h2.077a2.925 2.925 0 002.922-2.922 2.925 2.925 0 00-2.922-2.921H8.35a.86.86 0 000 1.718h.086c.663 0 1.203.54 1.203 1.203 0 .664-.54 1.204-1.203 1.204H6.359V3.61c0-1.043.848-1.89 1.89-1.89h27.5c1.043 0 1.89.847 1.89 1.89v1.518c0 .475.386.86.86.86z"/><path d="M20.974 32.585a.865.865 0 00-.607-.252.865.865 0 00-.608.252.868.868 0 00-.252.608c0 .227.092.448.252.608a.865.865 0 001.215 0 .868.868 0 00.252-.608.867.867 0 00-.252-.608zm-3.873-.251h-3.42a.86.86 0 100 1.719h3.42a.86.86 0 100-1.719zM22 24.772h-8.32a.86.86 0 000 1.719H22a.86.86 0 000-1.72zm3.267-7.562H13.681a.86.86 0 100 1.718h11.586a.86.86 0 100-1.719zm3.01-7.563H13.681a.86.86 0 100 1.719h14.596a.86.86 0 000-1.719zm15.619 2.793a2.997 2.997 0 00-1.406-1.833l-3.24-1.87a3.02 3.02 0 00-4.12 1.105L23.482 30.014a.86.86 0 00-.115.43V38.5a.86.86 0 001.289.744l6.976-4.028a.858.858 0 00.315-.315L43.594 14.73c.403-.698.51-1.511.302-2.29zm-18.81 24.57v-1.888l1.642.94-1.642.948zm3.364-1.942l-3.364-1.926v-1.211l4.399 2.54-1.035.597zm2.44-1.771l-5.49-3.169 9.041-15.658 5.488 3.169-9.04 15.658zM42.105 13.87l-1.318 2.281-5.488-3.168 1.318-2.282a1.3 1.3 0 011.774-.475l3.239 1.87c.3.173.515.453.605.788.09.335.043.685-.13.986z"/></g><defs><clipPath id="clip0"><path fill="#fff" d="M0 0h44v44H0z"/></clipPath></defs></svg>