<svg width="53" height="53" fill="none" xmlns="http://www.w3.org/2000/svg"><g clip-path="url(#clip0)" fill="#10CFC8"><path d="M36.943 12.89a14.703 14.703 0 00-10.538-4.298A14.816 14.816 0 0015.3 13.748a1.035 1.035 0 001.567 1.353 12.745 12.745 0 019.553-4.439h.092c3.385 0 6.569 1.311 8.972 3.698a12.647 12.647 0 013.762 9.037c0 3.265-1.234 6.37-3.474 8.742-2.353 2.49-3.734 5.643-3.941 8.957h-2.019V30.124h.656a2.729 2.729 0 002.726-2.726v-.138a2.729 2.729 0 00-2.726-2.726 2.729 2.729 0 00-2.726 2.726v.794h-2.484v-.794a2.729 2.729 0 00-2.726-2.726h-.175a2.729 2.729 0 00-2.726 2.726v.138a2.729 2.729 0 002.726 2.726h.83v10.972h-1.993c-.2-3.35-1.554-6.474-3.862-8.873a12.65 12.65 0 01-3.55-9.182 1.035 1.035 0 00-2.07-.056 14.706 14.706 0 004.128 10.673c2.134 2.219 3.31 5.17 3.31 8.312v2.996a4.314 4.314 0 003.83 4.28v.235c0 1.94 1.58 3.52 3.52 3.52s3.52-1.58 3.52-3.52v-.231a4.314 4.314 0 003.853-4.284V41.97c0-3.1 1.209-6.087 3.403-8.41a14.744 14.744 0 004.04-10.164c0-3.975-1.553-7.706-4.373-10.506zm-7.13 14.37a.656.656 0 011.31 0v.138a.656.656 0 01-.655.656h-.656v-.794zm-4.555 2.864h2.484v10.972h-2.484V30.124zm-2.901-2.07a.656.656 0 01-.656-.656v-.138c0-.362.294-.656.656-.656h.175c.361 0 .655.294.655.656v.794h-.83zm5.592 21.427a1.45 1.45 0 01-2.898 0v-.207h2.898v.207zm3.854-4.515a2.24 2.24 0 01-2.238 2.237h-6.107a2.24 2.24 0 01-2.238-2.237v-1.8h10.583v1.8zM26.5 0c-.572 0-1.035.464-1.035 1.035v3.866a1.035 1.035 0 002.07 0V1.035C27.535.464 27.072 0 26.5 0zm22.361 22.362h-3.865a1.035 1.035 0 000 2.07h3.865a1.035 1.035 0 000-2.07zm-40.857 0H4.14a1.035 1.035 0 000 2.07h3.865a1.035 1.035 0 000-2.07zm6.149-12.776L11.42 6.853a1.035 1.035 0 00-1.464 1.464l2.733 2.733a1.033 1.033 0 001.464 0 1.035 1.035 0 000-1.464zm28.891-2.733a1.035 1.035 0 00-1.464 0l-2.733 2.733a1.035 1.035 0 001.463 1.464l2.734-2.733a1.035 1.035 0 000-1.464z"/><path d="M36.19 19.488a10.452 10.452 0 00-3.814-4.739 10.405 10.405 0 00-5.97-1.817 1.035 1.035 0 00.007 2.07h.068c3.447 0 6.5 2.06 7.79 5.26a1.035 1.035 0 101.92-.774zm.452 3.177a1.043 1.043 0 00-.732-.304c-.273 0-.54.111-.733.304a1.042 1.042 0 000 1.464c.193.192.46.303.733.303.272 0 .54-.111.732-.304.192-.192.302-.46.302-.732 0-.272-.11-.539-.302-.731zm-22.09-5.333a1.041 1.041 0 00-.732-.302c-.272 0-.54.11-.732.302-.193.194-.303.46-.303.733 0 .272.11.538.303.732.193.192.46.303.732.303.272 0 .54-.11.732-.303.192-.194.303-.46.303-.732 0-.273-.11-.54-.303-.733z"/></g><defs><clipPath id="clip0"><path fill="#fff" d="M0 0h53v53H0z"/></clipPath></defs></svg>