<svg width="121" height="67" fill="none" xmlns="http://www.w3.org/2000/svg"><path d="M85.347 24a3.001 3.001 0 00-.298-1.028l-.74-1.399c-.48-.918-.976-1.829-1.463-2.743l-.184-.342c-.037-.069-.042-.086-.061-.123-.017-.044-.035-.08-.052-.13a6.45 6.45 0 01-.195-.652 22.815 22.815 0 01-.307-1.467c-.182-1.005-.33-2.026-.508-3.07a22.754 22.754 0 00-.15-.802l-.047-.211-.053-.211-.102-.387a7.645 7.645 0 00-.633-1.646c-.56-1.05-1.304-1.909-2.071-2.684-.77-.779-1.59-1.469-2.42-2.137l-.627-.495-.636-.476c-.214-.159-.418-.318-.65-.476l-.34-.237-.35-.223a16.451 16.451 0 00-2.956-1.485 16.84 16.84 0 00-3.18-.886 18.46 18.46 0 00-3.277-.28c-1.094.003-2.188.09-3.263.272a21.804 21.804 0 00-6.186 2.017c-3.88 1.952-7.176 5.088-9.216 8.934-.132.238-.246.485-.37.727-.116.246-.226.494-.338.742a20.298 20.298 0 00-1.342 4.679 21.604 21.604 0 00-.044 6.439 19.939 19.939 0 003.611 8.842c.627.86 1.315 1.67 2.045 2.433.728.764 1.51 1.475 2.273 2.171.188.175.378.349.541.524.079.083.158.182.184.234a.054.054 0 01.007.029v.048l.004.19c.002.515-.004 1.037-.01 1.556l-.075 6.244c.192-2.074.373-4.147.528-6.224.039-.52.079-1.038.11-1.562l.01-.2.002-.05c0-.022.003-.02 0-.07a.6.6 0 00-.043-.187c-.081-.186-.172-.29-.26-.403a9.559 9.559 0 00-.544-.596c-.735-.745-1.456-1.474-2.123-2.254-1.337-1.55-2.471-3.26-3.313-5.098a18.676 18.676 0 01-1.583-5.803 20.177 20.177 0 01.22-5.994 18.768 18.768 0 015.696-10.255c1.45-1.36 3.12-2.472 4.893-3.358 3.552-1.755 7.65-2.466 11.51-1.763a15.336 15.336 0 012.82.773c.913.343 1.79.774 2.615 1.293l.31.195.3.207c.2.133.407.291.611.441l.616.455.6.468c.792.63 1.57 1.277 2.265 1.974.703.692 1.319 1.437 1.759 2.214.219.393.371.787.504 1.252l.104.366.044.166.041.17c.054.232.103.48.15.73.19 1.003.36 2.037.568 3.076.105.521.216 1.043.362 1.581.074.27.154.541.27.837.026.071.065.153.098.229.04.08.09.18.117.225l.19.341c.512.91 1.016 1.824 1.533 2.73l.759 1.338c.061.108.123.294.145.46.025.17.02.338-.013.495a1.29 1.29 0 01-.187.446c-.023.036-.049.07-.075.105l-.041.05c-.014.017-.039.043-.057.063-.079.087-.16.176-.249.265a35.6 35.6 0 01-1.088 1.068c-.747.706-1.515 1.405-2.283 2.092l-.255.227.012.322c.042 1.05.085 2.109.102 3.16.009.526.013 1.052.006 1.572a12.095 12.095 0 01-.097 1.523c-.062.496-.16.964-.362 1.317-.197.351-.504.585-.928.716a3.125 3.125 0 01-.675.131l-.391.028-.408.038c-.536.056-1.054.122-1.574.165-2.07.192-4.163 0-6.189-.552-2.024-.551-3.973-1.409-5.83-2.431 1.765 1.175 3.662 2.184 5.695 2.876a17.71 17.71 0 003.134.77 18 18 0 003.239.17c.538-.016 1.075-.056 1.596-.082l.385-.015.404-.008c.29-.011.589-.045.89-.125.3-.079.606-.207.882-.4.276-.191.511-.448.686-.726.348-.563.475-1.157.57-1.705a12.763 12.763 0 00.175-1.646c.03-.54.049-1.076.062-1.611.022-.956.03-1.907.024-2.862.72-.607 1.431-1.218 2.137-1.846.393-.35.783-.703 1.172-1.082.096-.093.195-.192.293-.295l.076-.08.086-.097a2.878 2.878 0 00.605-1.178 3.01 3.01 0 00.066-1.052zM30.71 41.868v.963h-4.659v8.584h-.99v-8.584H20.43v-.963h10.28zm.536 6.218v.66c0 .349.048.642.145.88.096.24.229.43.398.572.17.142.369.243.598.302.229.06.476.09.742.09h3.216c.55 0 .95-.129 1.203-.386.252-.256.378-.577.378-.963h.99c0 .248-.037.5-.11.757-.074.257-.205.49-.392.702a2.082 2.082 0 01-.742.515c-.307.133-.694.2-1.162.2h-3.34c-.998 0-1.734-.211-2.205-.633-.473-.422-.708-1.055-.708-1.899v-1.788a2.34 2.34 0 01.742-1.713 2.92 2.92 0 01.907-.57 3.24 3.24 0 011.237-.22h2.859c.485 0 .911.066 1.278.199.366.133.671.31.914.53.242.22.424.474.543.763.119.289.178.59.178.901v1.1h-7.669v.001zm6.68-.825c0-.578-.16-1.03-.481-1.356-.32-.325-.77-.488-1.347-.488h-3.106c-.522 0-.944.167-1.265.502-.32.335-.48.782-.48 1.342h6.679zm2.308 1.595c0-.467.167-.85.502-1.148.335-.298.873-.447 1.615-.447h3.958c.284 0 .509.027.674.082.165.055.293.12.385.193.1.082.169.17.206.261v-.95c0-.384-.13-.714-.392-.99-.261-.275-.69-.412-1.285-.412h-2.625c-.403 0-.717.03-.942.09-.224.059-.391.14-.501.24a.612.612 0 00-.2.357 2.673 2.673 0 00-.034.44h-1.017c0-.201.018-.416.055-.646.036-.23.135-.44.296-.633.16-.192.405-.353.735-.481.33-.128.783-.193 1.36-.193h2.983c.916 0 1.571.214 1.965.64.394.426.591 1.011.591 1.754v4.402h-.99v-.55a2.147 2.147 0 01-.302.275 1.56 1.56 0 01-.37.193 1.533 1.533 0 01-.537.082h-3.848c-.733 0-1.297-.14-1.69-.42-.395-.28-.592-.717-.592-1.313v-.826zm2.474-.77c-.311 0-.563.023-.756.069a1.24 1.24 0 00-.453.192.59.59 0 00-.22.31 1.475 1.475 0 00-.055.42v.495c0 .156.023.295.069.42a.71.71 0 00.233.316c.11.087.262.156.454.206.192.05.435.076.728.076h3.354c1.008 0 1.512-.422 1.512-1.266 0-.43-.13-.745-.392-.942-.261-.197-.635-.296-1.12-.296h-3.354z" fill="#000"/><path d="M50.996 45.651a1.521 1.521 0 01.481-.557 2.44 2.44 0 01.66-.33c.275-.097.618-.145 1.03-.145h1.348c.448 0 .826.042 1.133.124.307.083.557.19.75.324.192.133.343.28.453.44.11.16.201.314.275.46.036-.11.1-.242.192-.398a1.6 1.6 0 01.42-.448c.187-.142.437-.26.748-.357.312-.096.71-.145 1.196-.145h1.54c.476 0 .9.065 1.27.193.372.129.684.3.936.516.252.215.442.468.57.756a2.2 2.2 0 01.192.901v4.43h-.99v-4.237c0-.55-.192-.977-.576-1.28-.385-.302-.935-.454-1.65-.454h-1.017c-.742 0-1.322.15-1.738.448-.417.298-.626.772-.626 1.423v4.1h-.99v-4.127c0-.614-.208-1.075-.625-1.382-.416-.307-.941-.461-1.573-.461h-1.072c-.431 0-.793.055-1.086.165-.293.11-.534.252-.722.426a1.568 1.568 0 00-.405.578 1.695 1.695 0 00-.124.619v4.182h-.99v-6.796h.99v1.032zm18.802.344h2.955c.338 0 .638-.02.9-.062.26-.041.48-.121.66-.24a1.17 1.17 0 00.412-.489c.096-.206.144-.474.144-.805 0-.486-.174-.868-.522-1.148-.348-.28-.884-.42-1.608-.42h-3.67c-.687 0-1.23.147-1.628.44-.399.294-.598.743-.598 1.348h-1.017c0-.1.007-.238.02-.412.014-.174.053-.363.117-.564.064-.202.16-.408.289-.62.128-.21.313-.4.556-.57.243-.17.548-.31.914-.42.367-.11.816-.165 1.347-.165h3.463c.422 0 .832.032 1.23.096.4.065.754.184 1.066.358.311.174.561.415.749.722.188.308.282.704.282 1.19 0 .514-.072.915-.213 1.204-.142.289-.296.507-.46.654-.166.146-.32.238-.461.275-.142.036-.213.06-.213.068 0 .01.034.021.103.035.068.014.15.041.247.082.096.042.204.103.323.186.12.083.227.204.323.365.096.16.179.362.248.605.068.243.103.543.103.901 0 .569-.088 1.034-.262 1.396a2.115 2.115 0 01-.714.853 2.88 2.88 0 01-1.058.433 6.44 6.44 0 01-1.292.124h-3.45c-1.127 0-1.951-.218-2.474-.653-.522-.435-.783-1.117-.783-2.043h.99c.008.321.072.591.192.812.119.22.277.399.474.536.197.138.433.236.708.296.275.06.572.09.893.09h3.67c.385 0 .71-.03.975-.09.266-.06.484-.16.653-.303.17-.142.293-.332.371-.57.078-.239.117-.532.117-.88 0-.386-.043-.689-.13-.909a.998.998 0 00-.392-.495 1.513 1.513 0 00-.66-.207 9.272 9.272 0 00-.934-.04h-2.955v-.964zm18.842 2.146c0 .679-.06 1.231-.178 1.658-.12.426-.317.759-.591.997-.275.239-.63.401-1.066.488-.435.088-.969.131-1.6.131h-4.18c-.65 0-1.2-.055-1.648-.165-.45-.11-.814-.293-1.093-.55-.28-.257-.483-.594-.612-1.011-.128-.417-.192-.933-.192-1.548V45.17c0-.615.057-1.137.172-1.569.114-.43.31-.784.584-1.059.275-.275.64-.474 1.093-.598.453-.124 1.019-.186 1.697-.186h4.178a7.01 7.01 0 011.512.144c.43.097.788.271 1.072.523.284.253.497.599.64 1.039.141.44.212 1.009.212 1.706v2.971zm-.99-3.054c0-.468-.038-.855-.116-1.162-.078-.307-.211-.55-.399-.73-.188-.178-.44-.302-.756-.37a5.724 5.724 0 00-1.189-.104h-4.178c-.449 0-.834.037-1.154.11a1.8 1.8 0 00-.79.378 1.56 1.56 0 00-.454.723c-.096.302-.144.688-.144 1.155v3.054c0 .459.046.837.137 1.135.092.298.238.535.44.709.201.174.462.296.783.364.32.07.715.104 1.182.104h4.178c.504 0 .914-.035 1.23-.104.317-.068.566-.188.75-.357.183-.17.309-.404.377-.702.07-.298.103-.68.103-1.149v-3.054zm5.58 6.328V42.86l-2.583 2.53-.688-.66 2.832-2.861h1.511v9.547H93.23zM8.664 58.258h-.818v7.892h.818v-7.892zm2.705 3.172c.106-.264.295-.48.568-.647.273-.167.629-.25 1.068-.25h2.159c.462 0 .848.062 1.158.187.311.125.563.296.756.512.193.216.331.466.415.75.083.285.125.582.125.893v3.275H16.8v-3.389c0-.493-.15-.874-.449-1.143-.3-.269-.695-.403-1.187-.403h-2.16c-.476 0-.868.134-1.175.403-.307.27-.46.65-.46 1.143v3.39h-.818v-5.619h.818v.899zm11.225-3.172h5.862c.947 0 1.642.167 2.085.5.443.334.665.842.665 1.524 0 .304-.034.557-.102.762a1.806 1.806 0 01-.25.506 1.021 1.021 0 01-.324.296 1.93 1.93 0 01-.313.142c.069.015.169.053.302.114.132.06.267.16.403.301.136.14.255.326.358.557.102.232.153.522.153.87 0 .44-.059.808-.176 1.103a1.661 1.661 0 01-.528.717c-.235.182-.525.31-.87.386a5.62 5.62 0 01-1.198.114h-6.067v-7.892zm.818 3.366h5.363c.537 0 .94-.084 1.21-.25.268-.167.403-.5.403-1.001 0-.432-.121-.76-.364-.984-.242-.223-.659-.335-1.25-.335h-5.362v2.57zm0 3.73h5.567c.538 0 .945-.117 1.222-.353.276-.234.414-.625.414-1.17 0-.524-.147-.89-.443-1.098-.296-.209-.716-.313-1.261-.313h-5.5v2.934zm9.089-2.638c0-.311.045-.601.136-.87a1.82 1.82 0 01.426-.7c.194-.197.445-.352.756-.466.31-.114.69-.17 1.136-.17h2.25c.462 0 .85.06 1.164.181.315.122.569.283.762.484a1.7 1.7 0 01.409.7c.08.264.119.545.119.84v1.229c0 .295-.044.576-.13.841a1.86 1.86 0 01-.421.706 1.98 1.98 0 01-.761.483c-.315.118-.699.176-1.154.176h-2.238c-.833 0-1.45-.187-1.852-.563-.401-.375-.602-.922-.602-1.643v-1.228zm.818 1.228c0 1.016.564 1.524 1.693 1.524h2.125c.515 0 .927-.118 1.238-.353.31-.235.466-.625.466-1.17v-1.23c0-.492-.146-.87-.438-1.13-.291-.262-.71-.393-1.255-.393h-2.136c-.56 0-.983.118-1.267.352-.284.235-.426.626-.426 1.172v1.228zm8.499-4.526v1.092h4.238v.682h-4.238v2.957c0 .454.115.788.347 1 .23.213.516.319.857.319h1.091c.386 0 .69-.048.909-.142.22-.095.384-.218.494-.37a1.13 1.13 0 00.205-.512c.026-.19.04-.379.04-.568h.818c0 .204-.023.44-.068.705a1.862 1.862 0 01-.307.745c-.16.231-.398.426-.716.585-.318.16-.75.24-1.295.24h-1.17c-.63 0-1.124-.173-1.483-.518-.36-.345-.54-.882-.54-1.61v-2.831h-.705v-.682H41v-1.092h.818zm16.247-1.16l2.75 7.05h.181l2.796-7.05h.908l-3.227 7.892h-1.158l-2.727-6.983-2.704 6.983h-1.16l-3.226-7.892h.91l2.794 7.05h.182l2.75-7.05h.931zm7.681 5.14v.546c0 .288.04.53.119.728.08.197.19.354.33.472.14.117.304.2.494.25.189.05.393.074.613.074h2.659c.454 0 .786-.106.994-.319a1.09 1.09 0 00.313-.796h.818c0 .205-.03.414-.091.626-.06.212-.17.405-.324.58-.156.174-.36.317-.614.426-.254.11-.573.165-.96.165h-2.76c-.826 0-1.434-.174-1.824-.523-.39-.349-.585-.872-.585-1.57V62.58c0-.258.051-.51.153-.757a1.91 1.91 0 01.46-.66 2.41 2.41 0 01.75-.471 2.677 2.677 0 011.023-.182h2.363a3.1 3.1 0 011.057.165c.303.11.555.256.755.438.201.182.35.392.45.63.098.24.147.488.147.746v.91h-6.34zm5.522-.683c0-.477-.133-.85-.398-1.12-.265-.268-.636-.403-1.114-.403H67.19c-.432 0-.78.138-1.046.415-.265.277-.397.646-.397 1.109h5.522zm13.725-4.457v.796H81.14v7.096h-.818v-7.096h-3.829v-.796h8.499zm.727 2.99a1.01 1.01 0 01.324-.387c.11-.083.26-.158.448-.227a2.19 2.19 0 01.728-.102h1.59c.546 0 .978.085 1.296.256.318.17.556.377.715.62.16.242.262.493.307.75.046.258.068.474.068.648h-.818c0-.098-.013-.236-.04-.415a1.378 1.378 0 00-.204-.529 1.414 1.414 0 00-.494-.454c-.22-.129-.523-.194-.91-.194h-1.454a1.74 1.74 0 00-.624.108 1.468 1.468 0 00-.813.722c-.08.16-.119.323-.119.49v3.616h-.818v-5.618h.818v.717zm7.67-.716v3.48c0 .493.145.859.437 1.097.291.24.69.359 1.198.359h2.204c.205 0 .406-.029.603-.086a1.67 1.67 0 00.528-.256 1.24 1.24 0 00.37-.432 1.31 1.31 0 00.135-.614v-3.548h.819v5.618h-.819v-.682a1.847 1.847 0 01-.744.534 2.578 2.578 0 01-.892.148h-2.204c-.864 0-1.488-.193-1.875-.58-.386-.387-.58-.929-.58-1.626v-3.412h.82zm8.225 3.821v.319c0 .113.013.22.04.318a.47.47 0 00.17.25c.087.068.218.124.392.165.175.042.409.063.705.063h2.875c.408 0 .723-.067.943-.2a.634.634 0 00.329-.574v-.25a.684.684 0 00-.29-.586c-.193-.14-.46-.21-.8-.21h-3.273c-.606 0-1.075-.112-1.409-.335-.333-.224-.5-.598-.5-1.12v-.228c0-.19.04-.373.12-.551.079-.178.2-.334.363-.467.163-.132.369-.239.619-.318.25-.08.55-.12.898-.12h2.659c.515 0 .931.044 1.249.131.318.088.565.2.739.336.174.136.291.286.352.449.061.163.091.32.091.472v.386h-.818v-.363a.642.642 0 00-.04-.2.534.534 0 00-.199-.238 1.414 1.414 0 00-.477-.205c-.212-.057-.504-.085-.875-.085h-2.818c-.697 0-1.045.258-1.045.773v.227c0 .516.348.774 1.045.774h3.273c.613 0 1.092.118 1.437.352.345.236.517.611.517 1.127v.25c0 .19-.042.371-.125.545a1.34 1.34 0 01-.381.467 1.93 1.93 0 01-.642.324c-.257.08-.561.12-.909.12h-3.124c-.402 0-.728-.04-.977-.12-.25-.08-.444-.184-.58-.313a.99.99 0 01-.278-.443 1.771 1.771 0 01-.074-.512v-.41h.818zm8.567-4.935v1.092h4.238v.682h-4.238v2.957c0 .454.115.788.347 1 .231.213.517.319.857.319h1.091c.386 0 .689-.048.909-.142.22-.095.385-.218.494-.37a1.13 1.13 0 00.205-.512c.026-.19.039-.379.039-.568h.819c0 .204-.023.44-.069.705a1.849 1.849 0 01-.306.745c-.159.231-.398.426-.716.585-.318.16-.75.24-1.295.24h-1.171c-.628 0-1.123-.173-1.482-.518-.36-.345-.54-.882-.54-1.61v-2.831h-.704v-.682h.704v-1.092h.818zm10.108-4.189H.43v.712h119.86v-.712zM42.582 11.514a5.63 5.63 0 01-5.62-5.625 5.63 5.63 0 015.62-5.626 5.63 5.63 0 015.62 5.626 5.63 5.63 0 01-5.62 5.625zm0-9.416a3.794 3.794 0 00-3.788 3.79c0 2.091 1.7 3.792 3.788 3.792s3.788-1.7 3.788-3.791c0-2.09-1.7-3.792-3.788-3.792zm23.703 31.674a5.63 5.63 0 01-5.62-5.626 5.63 5.63 0 015.62-5.625 5.63 5.63 0 015.62 5.625 5.63 5.63 0 01-5.62 5.626zm0-9.417a3.794 3.794 0 00-3.787 3.792c0 2.09 1.699 3.79 3.788 3.79 2.088 0 3.787-1.7 3.787-3.79s-1.7-3.792-3.787-3.792zM41.482 37.306a4.577 4.577 0 01-4.569-4.573 4.576 4.576 0 014.57-4.574 4.577 4.577 0 014.569 4.574 4.576 4.576 0 01-4.57 4.573zm0-7.655a3.084 3.084 0 00-3.079 3.082c0 1.7 1.381 3.082 3.08 3.082a3.084 3.084 0 003.078-3.082c0-1.7-1.38-3.082-3.079-3.082zm8.981-3.012a4.304 4.304 0 01-4.297-4.302 4.304 4.304 0 014.297-4.301c2.37 0 4.297 1.93 4.297 4.301a4.304 4.304 0 01-4.297 4.302zm0-7.135a2.836 2.836 0 00-2.831 2.833 2.836 2.836 0 002.83 2.834 2.836 2.836 0 002.832-2.834 2.836 2.836 0 00-2.831-2.833z" fill="#000"/><path d="M48.267 19.336l-3.425-9.412 4.762 8.81-1.337.602zm5.907 3.588l7.774 3.327-8.232-1.932.458-1.395zm-5.544 2.774l-4.765 4.283 3.666-5.256 1.098.973z" fill="#000"/></svg>