<svg width="131" height="45" fill="none" xmlns="http://www.w3.org/2000/svg"><path d="M94.664 39.095c-.383.375-.86.657-1.339.844a5.512 5.512 0 01-1.721.281c-1.052 0-1.912-.375-2.582-1.031-.574-.656-.956-1.594-.956-2.906v-1.688c0-1.312.287-2.25.86-3 .574-.656 1.435-1.031 2.487-1.031 1.051 0 1.816.281 2.294.75.479.469.861 1.313.957 2.344H92.75c-.095-.563-.19-1.032-.382-1.219-.191-.188-.478-.281-.956-.281s-.861.187-1.148.562c-.287.375-.382.938-.382 1.782v1.687c0 .844.095 1.5.382 1.875.287.375.67.563 1.243.563.383 0 .67-.094.956-.188l.192-.094v-1.687h-1.339V35.25h3.251l.096 3.844s-.096 0 0 0zm8.606-2.812c0 1.218-.287 2.25-.861 2.906-.573.656-1.434 1.031-2.486 1.031-1.052 0-1.912-.375-2.486-1.031-.574-.656-.956-1.688-.956-2.906v-1.594c0-1.313.287-2.25.86-3 .574-.75 1.435-1.125 2.487-1.125s1.912.375 2.486 1.031c.574.75.956 1.688.956 3v1.688zm-1.912-1.5c0-.844-.096-1.5-.383-1.875-.287-.375-.669-.657-1.147-.657s-.86.188-1.148.563c-.287.375-.382 1.031-.382 1.781v1.688c0 .843.095 1.406.382 1.781.287.375.67.563 1.148.563.478 0 .86-.188 1.147-.563.287-.375.383-.938.383-1.781v-1.5zm5.737 3.747h3.347v1.593h-5.259v-9.28h1.912v7.687zm5.068 1.593v-9.28h2.486c1.147 0 2.008.374 2.677 1.03.669.657.956 1.688 1.052 2.813v1.5c0 1.219-.287 2.156-.956 2.906-.67.75-1.53 1.032-2.773 1.032h-2.486zm1.912-7.78v6.187h.574c.669 0 1.052-.188 1.338-.469.287-.375.383-.938.383-1.688V34.78c0-.844-.096-1.5-.383-1.782-.286-.374-.669-.562-1.243-.562l-.669-.094zM48.767 9.561h1.912l-.956-3.562-.956 3.562zm-33.181 0h1.817l-.956-3.562-.861 3.562zm19.89 25.219h-.574v5.343h.478c.574 0 .956-.188 1.147-.469.192-.281.383-.75.383-1.5v-1.406c0-.75-.096-1.313-.287-1.594-.191-.281-.574-.281-1.147-.375zm-13.388 3.751h1.53l-.765-2.906-.765 2.906zm35.093-3.468c-.095-.282-.286-.376-.573-.376-.478 0-.765.563-.765 1.782v1.968c0 .657.095 1.126.191 1.407.096.281.287.468.574.468s.478-.187.574-.468c.095-.282.19-.75.19-1.407V36.47c0-.657-.095-1.125-.19-1.407zM8.797 4.97H7.363v3.093h1.434c.383 0 .67-.094.956-.375.192-.281.287-.656.287-1.125s-.095-.937-.287-1.219c-.287-.187-.669-.375-.956-.375zm20.75 29.81h-.956v2.343h.956c.287 0 .574-.094.765-.281.191-.188.287-.47.287-.844-.096-.75-.478-1.219-1.052-1.219zm7.267-10.219h1.912l-.956-3.563-.956 3.563zM7.076 38.531h1.53l-.765-2.906-.765 2.906zM42.073 4.97h-1.434v3.093h1.434c.383 0 .67-.094.956-.375.191-.281.287-.656.287-1.125s-.096-.937-.287-1.219c-.382-.187-.67-.375-.956-.375zM19.41 24.561h1.913l-.956-3.563-.956 3.563zm87.972-14.434c.287-.376.765-.75 1.243-1.126-.478.376-.956.75-1.243 1.126zm2.008 17.154l-.478-1.218-.67-1.313v-1.594l-4.781-2.062-4.78 2.062v1.594l-.67 1.313-.478 1.218c0 .094 0 .188.095.188l.957.562h9.753l.956-.562c.096-.094.096-.188.096-.188z" fill="#217673"/><path d="M108.529 9.001c-.478.282-.86.657-1.243 1.126-.86 1.03-2.773 4.218-3.251 5.906-.573 1.781-.669 3.843-.573 5.062 0 0 1.434-5.906 3.537-9 2.008-3 1.626-2.437 2.965-4.031 0 .094-.67.469-1.435.937zm-5.068-1.219c-1.147 0-2.103-.844-2.199-1.875v.281c0 1.219 1.052 2.25 2.295 2.25 1.243 0 2.295-1.031 2.295-2.25v-.281c-.383 1.031-1.243 1.875-2.391 1.875z" fill="#217673"/><path d="M109.963 8.155c-1.338-1.125-2.773.094-3.92.938-.574.375-1.052.843-1.626 1.218-1.051.657-1.912.282-2.773-.468-1.051-.844-2.199-2.063-3.633-2.063-.478 0-1.148.094-1.53.375 1.339-.562 2.39-.281 3.538.563a29.85 29.85 0 011.817 1.406c.287.187.478.469.86.562 2.582.938 4.59-4.5 7.267-2.53zm-.286-.187c-.096 0-.096 0 0 0-.096 0-.096 0 0 0z" fill="#217673"/><path d="M103.844 11.908c-1.339.562-2.582.094-2.582.094s-1.339-.563-2.582-2.344c-1.147-1.594-2.008-1.594-2.103-1.594.19.094 2.39 3.094 3.25 4.031.861.938 1.722 1.125 3.061.75l.573-.281c.67-.375 1.148-.656 1.435-.938l.765-.75.095-.093v.094l.096-.094c-.191.187-.861.562-2.008 1.125zm-.383-4.126c1.148 0 2.104-.844 2.2-1.875-.192-1.031-1.052-1.875-2.2-1.875-1.147 0-2.103.844-2.199 1.875.096 1.031 1.052 1.875 2.199 1.875zM98.01 26.063l-.477 1.219c0 .094 0 .188.095.188l.957.562.478-1.406-1.052-.563zm.766-.095l.67.281v-2.718l-.766-.375v2.625c0 .093 0 .187.096.187zm10.136.095l.478 1.219c0 .094 0 .188-.096.188l-.956.562-.478-1.406 1.052-.563z" fill="#217673"/><path d="M107.478 26.25h-8.033l-.478.375h8.893l-.382-.375zm.573-.282l-.669.281v-2.718l.765-.375v2.625c.095.093 0 .187-.096.187z" fill="#217673"/><path d="M106.426 11.53c.956-1.5 3.538-3.468 3.633-3.375-1.434-1.125-2.868.188-3.825 1.032-.956.843-2.008 1.78-3.251 1.5-.956-.282-1.817-1.22-2.677-1.875-1.339-1.032-2.295-1.313-3.73-.657.574 0 1.34.563 1.626 1.032.67.937 1.052 1.593 2.678 2.718.669.375 1.243.375 1.912.282.956-.094 2.486-.657 3.06-1.407-1.243 1.97-2.773 3.657-3.156 6-.095.938-.095 1.875.192 2.813.095.375.191.75.382 1.125-.191.094-.287.187-.287.375 0 .094 0 .187.096.281l-3.634 2.25h8.032l-3.633-2.25c.095-.094.095-.187.095-.281 0-.188-.191-.375-.382-.375 0-1.594.096-3.094.574-4.594a18.82 18.82 0 012.295-4.594zm-3.443-5.624c.528 0 .956-.336.956-.75 0-.415-.428-.75-.956-.75s-.956.335-.956.75c0 .414.428.75.956.75zM66.917 36.915c-.237-.24-.356-.587-.356-1.04 0-.203.032-.388.098-.557a1.25 1.25 0 01.28-.444c.123-.124.27-.22.443-.287.172-.072.365-.107.579-.107.207 0 .396.032.568.095a1.21 1.21 0 01.746.72c.069.173.103.37.103.591 0 .195-.032.377-.097.546a1.195 1.195 0 01-.276.438 1.305 1.305 0 01-.453.293c-.18.071-.385.107-.614.107-.44 0-.78-.118-1.021-.355z" fill="#217673"/><path fill-rule="evenodd" clip-rule="evenodd" d="M0 0v45h131V0H0zm64.64 3.281h5.832V4.97h-3.825v2.343h3.251v1.594h-3.25v2.625h3.824v1.688H64.64V3.28zM55.363 7.5c0-1.406.287-2.438.956-3.188.67-.75 1.53-1.125 2.678-1.125 1.147 0 1.912.282 2.486.938.574.563.86 1.5.956 2.625h-2.103c0-.75-.096-1.219-.287-1.5-.192-.281-.574-.375-1.148-.375s-.956.188-1.147.563c-.192.375-.383 1.03-.383 1.875v1.875c0 1.03.096 1.687.383 2.062.191.375.573.563 1.147.563.574 0 .956-.094 1.148-.376.19-.28.287-.75.382-1.406h2.104c-.096 1.125-.383 1.969-.956 2.625-.67.469-1.53.75-2.582.75-1.148 0-2.008-.375-2.678-1.125-.573-.75-.956-1.781-.956-3.187V7.5zM38.535 3.281h3.442c1.052 0 1.817.281 2.39.938.575.656.861 1.406.861 2.343 0 .938-.286 1.782-.86 2.344-.574.563-1.434.844-2.486.844h-1.243v3.469h-2.104V3.28zm10.996 23.344v1.688h-6.597v-1.22l4.111-7.124h-4.207V18.28h6.598v1.22l-4.112 7.125h4.207zM33.945 9.75c-.191-.188-.574-.469-1.147-.656-1.052-.375-1.721-.844-2.2-1.313-.478-.468-.669-1.125-.669-1.781 0-.844.287-1.5.956-2.063.67-.562 1.34-.75 2.295-.75.67 0 1.148.094 1.721.376.479.28.861.656 1.148 1.124.287.47.382 1.032.382 1.594h-2.008c0-.468-.095-.843-.287-1.031-.19-.281-.478-.375-.86-.375-.383 0-.67.094-.86.281-.192.188-.287.469-.287.844 0 .281.095.563.382.75.191.188.574.469 1.147.656.957.375 1.722.75 2.2 1.313.478.469.669 1.125.669 1.969 0 .843-.287 1.593-.86 2.062-.574.469-1.34.75-2.296.75-.669 0-1.242-.094-1.816-.375A2.883 2.883 0 0130.312 12c-.287-.469-.478-1.125-.478-1.781h2.103c0 .562.096 1.031.383 1.219-.096.28.287.374.86.374.765 0 1.052-.374 1.052-1.124 0-.376-.096-.75-.287-.938zM22.853 3.281l1.53 4.5 1.626-4.5h2.199l-2.773 6.375v3.656h-2.008V9.656l-2.773-6.375h2.2zm1.721 25.032h-2.199l-.573-2.063h-2.773l-.574 2.063h-2.2l3.156-10.032h1.912l3.252 10.032zM15.587 3.28h1.912l3.252 10.031h-2.2l-.573-2.062h-2.773l-.574 2.063h-2.295l3.25-10.032zm-.765 15v10.032h-2.104v-2.72l.192-4.124-2.008 6.843H9.466L7.458 21.47l.192 4.125v2.718H5.642v-10.03h2.677l1.912 7.218 1.913-7.219h2.677zm-9.562-15h3.442c1.052 0 1.817.281 2.391.938.574.656.86 1.406.86 2.343 0 .938-.286 1.782-.86 2.344-.574.563-1.434.844-2.486.844H7.363v3.469H5.259V3.28zm4.207 38.157l-.478-1.594H6.693l-.478 1.593h-1.72l2.58-7.968h1.53l2.583 7.968H9.466zm8.51 0h-1.625l-.956-4.688-.956 4.688h-1.626l-1.434-7.97h1.53l.765 5.063.956-5.062h1.339l1.051 5.062.765-5.062h1.626l-1.434 7.968zm6.407 0l-.478-1.594h-2.2l-.477 1.593h-1.721l2.581-7.968h1.53l2.582 7.968h-1.817zm7.937.093h-1.817l-1.243-2.906h-.86v2.906h-1.53v-8.06h2.581c.86 0 1.434.187 1.912.656.479.375.67 1.031.67 1.781 0 1.032-.383 1.782-1.148 2.25l1.435 3.375zm-4.494-15.468a1.68 1.68 0 001.338.656c.383 0 .765-.094.956-.282l.192-.093v-1.875h-1.435v-1.5h3.538v4.125c-.382.375-.86.75-1.434.937-.478.282-1.147.375-1.817.375-1.147 0-2.103-.375-2.773-1.031-.67-.75-.956-1.781-.956-3.094V22.5c0-1.406.287-2.438.956-3.188.574-.75 1.53-1.125 2.678-1.125 1.147 0 1.912.282 2.486.844.574.563.86 1.407.956 2.532h-2.008c-.096-.657-.191-1.032-.383-1.313-.19-.188-.573-.375-1.051-.375-.574 0-.957.188-1.243.563-.287.375-.383 1.03-.383 1.875v1.78c0 .938.096 1.595.383 1.97zm10.805 12c0 1.03-.287 1.874-.86 2.437a3.198 3.198 0 01-2.296.938h-2.2v-7.97h2.2c.956 0 1.721.282 2.295.844.574.563.86 1.407.86 2.438v1.313zM36.336 26.25l-.574 2.063h-2.104l3.156-10.032h1.912l3.251 10.032h-2.294l-.574-2.063h-2.773zm5.163 9.938c.191.187.478.374.956.562.765.281 1.34.656 1.722 1.031.382.375.573.938.573 1.594 0 .656-.19 1.219-.669 1.594-.478.375-1.052.562-1.817.562-.574 0-1.052-.093-1.434-.281-.383-.188-.765-.563-1.052-.938-.287-.374-.382-.843-.382-1.406h1.625c0 .469.096.75.287 1.032.287.187.574.374 1.052.374.574 0 .86-.28.86-.937 0-.281-.095-.563-.286-.75-.192-.188-.478-.375-.957-.563-.86-.28-1.434-.656-1.72-1.03-.383-.376-.575-.938-.575-1.407 0-.656.287-1.219.765-1.594.478-.375 1.148-.656 1.817-.656.478 0 .956.094 1.339.281.382.188.67.469.86.844.192.375.287.844.287 1.313h-1.625c0-.376-.096-.657-.287-.844a.876.876 0 00-.67-.282.876.876 0 00-.669.282c-.191.187-.287.375-.287.656 0 .188.096.375.287.563zm6.885 5.343v-1.125l2.2-2.718a3.83 3.83 0 00.573-1.032c.096-.281.191-.562.191-.843a1.84 1.84 0 00-.191-.844c-.096-.188-.287-.282-.574-.282s-.478.094-.573.376c-.192.28-.192.562-.192 1.03h-1.53V36c0-.469.096-.938.287-1.313.191-.374.478-.75.86-.937.383-.188.766-.375 1.244-.375.765 0 1.338.188 1.721.563.383.374.574.937.574 1.687 0 .469-.096.938-.287 1.406-.191.469-.67 1.032-1.243 1.688l-1.052 1.5h2.773v1.312h-4.781zm4.877-13.218h-2.104V18.28h2.104v10.032zm-1.435-15l-.67-2.063h-2.772l-.574 2.063h-2.2L48.863 3.28h1.912l3.252 10.031h-2.2zm7.076 24.937c0 1.125-.191 1.969-.574 2.531-.382.469-.956.844-1.72.844-.766 0-1.34-.281-1.722-.844-.382-.562-.574-1.406-.67-2.437v-1.5c0-1.125.192-1.969.575-2.532.382-.562.956-.843 1.72-.843.766 0 1.34.281 1.722.843.382.563.574 1.407.67 2.438v1.5zm-1.721-16.5v6.563h-2.104V18.28h2.104l3.06 6.563V18.28h2.008v10.032h-2.104l-2.964-6.563zm6.407 19.688h-1.626v-6.094l-1.53.656v-1.313l2.964-1.218h.192v7.968zm.669-23.157h5.833v1.688h-3.825v2.343h3.251v1.594h-3.251v2.625h3.825v1.688h-5.833V18.28zm64.639 24.75H76.401V1.875h52.495v41.156zm-60.27-4.85a7.952 7.952 0 01-.183.23l-2.576 3.156h1.302c.165 0 .312-.03.442-.09a.768.768 0 00.293-.23l1.899-2.655c.141-.195.27-.392.384-.591a3.78 3.78 0 00.476-1.26c.046-.225.07-.463.07-.714 0-.394-.066-.756-.196-1.086a2.346 2.346 0 00-.55-.85 2.466 2.466 0 00-.867-.55 3.122 3.122 0 00-1.142-.197c-.42 0-.805.069-1.153.208a2.725 2.725 0 00-.895.568 2.57 2.57 0 00-.786 1.862c0 .39.065.73.195 1.023.134.29.308.533.522.732.215.195.46.34.735.438.275.098.556.147.843.147.253 0 .494-.03.723-.09.23-.064.44-.156.631-.276-.053.075-.109.15-.166.225z" fill="#217673"/></svg>