<svg width="48" height="48" fill="none" xmlns="http://www.w3.org/2000/svg"><path d="M40.97 7.03A23.843 23.843 0 0024 0 23.843 23.843 0 007.03 7.03 23.843 23.843 0 000 24c0 6.41 2.496 12.438 7.03 16.97A23.843 23.843 0 0024 48c6.41 0 12.438-2.496 16.97-7.03A23.843 23.843 0 0048 24c0-6.41-2.496-12.438-7.03-16.97zM24 46.124C11.8 46.125 1.875 36.2 1.875 24S11.8 1.875 24 1.875 46.125 11.8 46.125 24 36.2 46.125 24 46.125z" fill="#10CFC8"/><path d="M13.287 11.909a.938.938 0 00-1.326 0l-.024.024a.938.938 0 001.322 1.33l.028-.029a.938.938 0 000-1.325zM36.066 34.74a.937.937 0 00-1.326-.002l-.03.031a.937.937 0 101.322 1.329l.031-.031a.938.938 0 00.003-1.326z" fill="#10CFC8"/><path d="M30.196 9.745l-5.532-5.556a.937.937 0 00-1.602.66v2.114a16.992 16.992 0 00-8.244 2.653.937.937 0 101.01 1.58 15.117 15.117 0 017.235-2.353v3.193C16.883 12.516 12 17.7 12 24a11.91 11.91 0 002.877 7.797l-2.259 2.26A15.076 15.076 0 018.812 24c0-2.914.828-5.744 2.393-8.185a.937.937 0 10-1.579-1.012A17.005 17.005 0 006.938 24c0 4.558 1.774 8.842 4.997 12.065a.935.935 0 001.326 0l3.58-3.58a.938.938 0 000-1.325A10.058 10.058 0 0113.875 24c0-5.267 4.043-9.607 9.188-10.081v2.043a.937.937 0 001.601.662l5.532-5.556a.937.937 0 000-1.323zm-5.259 3.947V7.12l3.271 3.285-3.27 3.286zm11.128-1.757a.938.938 0 00-1.326 0l-3.58 3.58a.937.937 0 000 1.325A10.058 10.058 0 0134.125 24c0 5.267-4.043 9.606-9.188 10.081v-2.046a.937.937 0 00-1.601-.661l-5.532 5.556a.937.937 0 000 1.323l5.532 5.556a.937.937 0 001.602-.661v-2.114a17.023 17.023 0 007.89-2.43.937.937 0 10-.972-1.603 15.147 15.147 0 01-6.918 2.158v-3.195C31.118 35.484 36 30.302 36 24a11.91 11.91 0 00-2.877-7.797l2.26-2.26A15.076 15.076 0 0139.186 24c0 2.785-.76 5.508-2.198 7.875a.937.937 0 101.603.973A17.032 17.032 0 0041.062 24c0-4.558-1.774-8.842-4.997-12.065zM23.063 40.877l-3.271-3.286 3.27-3.285v6.571z" fill="#10CFC8"/></svg>