<svg width="78" height="57" fill="none" xmlns="http://www.w3.org/2000/svg"><path d="M21.509 17.66h9.268c2.995 0 5.95 2.508 5.96 6.095.008 3.352-2.6 5.428-4.301 5.844.05 0 2.282 3.982 2.282 3.982l10.228-17.355L55.603 34.42c.323.592.52.93.668 1.355.316.912-.525 1.526-1.11 1.532-.577.006-.864-.212-1.45-.532l-6.423-3.697-2.371-4.432 6.438 3.752-6.46-10.957s-8.27 14.158-8.551 14.58c-.482.725-.795 1.29-1.685 1.29-.864 0-1.27-.574-1.722-1.27-.1-.203-5.33-8.872-5.33-8.872 1.908.006 1.715.004 3.255.004 1.253 0 3.209-1.106 3.209-3.318 0-1.325-1.014-3.36-3.436-3.36h-7.503L21.51 17.66zm.021 6.18l2.834 4.972-.015 7.143s.032 1.338-1.434 1.363c-.017-.017-1.41.11-1.41-1.326 0-1.435.025-12.152.025-12.152z" fill="#fff"/><path d="M24.364 28.811l-.008 7.091s.025 1.39-1.441 1.416" fill="#fff"/></svg>