<svg width="44" height="44" fill="none" xmlns="http://www.w3.org/2000/svg"><path d="M21.595 23.798a.864.864 0 00-.607-.252.866.866 0 00-.608.252.866.866 0 00-.252.608.863.863 0 00.86.859.866.866 0 00.607-.252.866.866 0 00.252-.607.866.866 0 00-.252-.608z" fill="#10CFC8"/><path d="M40.734 18.734h-2.072a7.572 7.572 0 00-6.82-4.297 7.572 7.572 0 00-6.82 4.297H3.266A3.27 3.27 0 000 22a3.27 3.27 0 003.266 3.265h13.778a.86.86 0 000-1.718H3.266A1.549 1.549 0 011.719 22c0-.853.694-1.547 1.547-1.547h21.173c-.105.5-.16 1.017-.16 1.547 0 4.17 3.393 7.562 7.563 7.562 3 0 5.6-1.757 6.82-4.297h2.072A3.27 3.27 0 0044 22a3.27 3.27 0 00-3.266-3.266zm-8.892 9.11A5.85 5.85 0 0125.998 22a5.85 5.85 0 015.844-5.844A5.85 5.85 0 0137.685 22a5.85 5.85 0 01-5.843 5.843zm8.892-4.297h-1.489a7.57 7.57 0 000-3.094h1.49c.852 0 1.546.694 1.546 1.547s-.694 1.547-1.547 1.547zm0 9.635H21.11a7.572 7.572 0 00-6.825-4.307 7.572 7.572 0 00-6.825 4.307H3.266A3.27 3.27 0 000 36.447a3.27 3.27 0 003.266 3.266h4.203A7.572 7.572 0 0014.285 44a7.572 7.572 0 006.816-4.287h19.633A3.27 3.27 0 0044 36.447a3.27 3.27 0 00-3.266-3.265zM3.266 37.994a1.549 1.549 0 01-1.547-1.547c0-.853.694-1.547 1.547-1.547H6.88a7.567 7.567 0 00.004 3.094H3.266zm11.019 4.287a5.85 5.85 0 01-5.844-5.844 5.85 5.85 0 015.844-5.843 5.85 5.85 0 015.844 5.843 5.85 5.85 0 01-5.844 5.844zm26.45-4.287h-19.05a7.567 7.567 0 00.005-3.093h19.044c.853 0 1.547.693 1.547 1.546 0 .853-.694 1.547-1.547 1.547zM30.6 4.549a.866.866 0 00-.608-.252.866.866 0 00-.607.252.866.866 0 00-.252.607.864.864 0 00.859.86.865.865 0 00.608-.252.866.866 0 00.252-.608.866.866 0 00-.252-.607z" fill="#10CFC8"/><path d="M40.735 4.297h-7.606a.86.86 0 000 1.719h7.606a1.548 1.548 0 010 3.093H21.689a7.57 7.57 0 000-3.093h4.694a.86.86 0 000-1.72h-5.277A7.572 7.572 0 0014.286 0a7.572 7.572 0 00-6.82 4.297h-4.2A3.27 3.27 0 00.002 7.562a3.27 3.27 0 003.266 3.266h4.198a7.572 7.572 0 006.82 4.297 7.57 7.57 0 006.82-4.297h19.63A3.27 3.27 0 0044 7.562a3.27 3.27 0 00-3.265-3.265zM6.882 9.109H3.267A1.549 1.549 0 011.72 7.562c0-.853.694-1.547 1.547-1.547h3.615a7.566 7.566 0 000 3.094zm7.404 4.297a5.85 5.85 0 01-5.844-5.844 5.85 5.85 0 015.844-5.843 5.85 5.85 0 015.843 5.843 5.85 5.85 0 01-5.844 5.844z" fill="#10CFC8"/></svg>