<svg width="51" height="51" fill="none" xmlns="http://www.w3.org/2000/svg"><g clip-path="url(#clip0)" fill="#10CFC8"><path d="M35.38 39.313a.998.998 0 00-1.433-.003.998.998 0 00.686 1.721c.242 0 .493-.088.707-.296a.998.998 0 00.04-1.422z"/><path d="M44.398 20.137a.996.996 0 00-1.868.692 20.844 20.844 0 011.296 7.264c0 11.533-9.383 20.915-20.915 20.915-4.28 0-8.393-1.283-11.897-3.71a.996.996 0 10-1.134 1.636A22.775 22.775 0 0022.91 51a22.757 22.757 0 0016.198-6.71 22.757 22.757 0 006.709-16.197 22.83 22.83 0 00-1.42-7.956zM30.624 6.518a22.845 22.845 0 00-7.714-1.332 22.758 22.758 0 00-16.197 6.71 22.758 22.758 0 00-6.71 16.197c0 4.745 1.438 9.297 4.16 13.165a.995.995 0 001.387.241.996.996 0 00.241-1.387 20.78 20.78 0 01-3.796-12.02c0-11.532 9.383-20.914 20.915-20.914 2.419 0 4.788.409 7.043 1.215a.996.996 0 10.67-1.875z"/><path d="M50.92 8.26a.996.996 0 00-.92-.615h-5.233l.563-.563a.996.996 0 00-1.409-1.409l-.57.57V.996a.996.996 0 00-1.7-.704l-8.78 8.78a.996.996 0 00-.292.704v3.455c-2.873-1.88-6.184-2.866-9.669-2.866-9.775 0-17.728 7.953-17.728 17.728 0 9.775 7.953 17.728 17.728 17.728a17.7 17.7 0 009.18-2.559.996.996 0 00-1.033-1.703 15.707 15.707 0 01-8.147 2.27c-8.677 0-15.736-7.06-15.736-15.736 0-8.677 7.06-15.736 15.736-15.736 3.543 0 6.885 1.148 9.67 3.32v1.338l-1.816 1.815a12.096 12.096 0 00-7.854-2.888c-6.7 0-12.15 5.45-12.15 12.15s5.45 12.151 12.15 12.151 12.15-5.45 12.15-12.15c0-2.992-1.087-5.735-2.887-7.854l1.822-1.823h1.325a15.771 15.771 0 013.326 9.677c0 2.936-.814 5.8-2.353 8.282a.996.996 0 101.693 1.05 17.685 17.685 0 002.652-9.332c0-3.44-1.01-6.813-2.874-9.677h3.456a.996.996 0 00.704-.291l8.78-8.78a.995.995 0 00.216-1.085zM33.07 28.093c0 5.602-4.557 10.159-10.159 10.159-5.601 0-10.159-4.557-10.159-10.159s4.558-10.159 10.16-10.159c2.442 0 4.686.867 6.44 2.31l-2.268 2.268a6.935 6.935 0 00-4.173-1.39 6.98 6.98 0 00-6.971 6.971 6.98 6.98 0 006.971 6.972 6.98 6.98 0 006.972-6.972 6.936 6.936 0 00-1.39-4.173l2.268-2.268a10.112 10.112 0 012.309 6.441zm-10.863.704a.993.993 0 001.409 0l3.448-3.448a4.95 4.95 0 01.827 2.744 4.985 4.985 0 01-4.98 4.98 4.985 4.985 0 01-4.98-4.98 4.985 4.985 0 014.98-4.98 4.95 4.95 0 012.744.827l-3.448 3.449a.996.996 0 000 1.408zm12.365-13.774v-4.835l6.788-6.787v4.834l-6.788 6.788zm6.237 1.402h-4.82l6.787-6.788h4.82l-6.787 6.788zM8.101 42.862a1.003 1.003 0 00-.704-.292 1 1 0 00-.996.996 1 1 0 00.996.996 1 1 0 00.996-.996c0-.262-.106-.518-.292-.704z"/></g><defs><clipPath id="clip0"><path fill="#fff" d="M0 0h51v51H0z"/></clipPath></defs></svg>