<svg width="18" height="18" fill="none" xmlns="http://www.w3.org/2000/svg"><g clip-path="url(#clip0)" fill="#10CFC8"><path d="M15.398 7.577c.021-2.337-2.14-4.48-4.818-4.776a2.546 2.546 0 01-.173-.024 2.712 2.712 0 00-.408-.04c-.55 0-.696.354-.735.566-.037.206-.001.379.107.514.182.228.501.268.758.3.076.01.147.02.206.032 2.407.495 3.217 1.273 3.613 3.47.01.054.014.12.018.19.018.263.054.81.692.81.053 0 .11-.005.17-.013.593-.083.575-.583.566-.823a1.094 1.094 0 01.001-.174.218.218 0 00.003-.032z"/><path d="M9.843 1.943c.071.005.139.01.195.018 3.951.56 5.769 2.283 6.272 5.95.009.063.01.139.012.22.005.286.015.882.71.894h.022c.218 0 .391-.06.515-.18.216-.208.201-.518.19-.767a2.814 2.814 0 01-.006-.168c.05-3.751-3.475-7.152-7.545-7.279-.017 0-.033 0-.049.003a.37.37 0 01-.048.002c-.04 0-.09-.003-.144-.006-.064-.004-.136-.01-.21-.01-.648 0-.77.424-.787.677-.036.584.578.626.873.645zm6.277 10.709c-.085-.059-.171-.12-.253-.18-.431-.32-.89-.615-1.334-.9l-.276-.177c-.569-.368-1.08-.547-1.563-.547-.65 0-1.218.331-1.686.984-.207.29-.459.43-.769.43-.183 0-.391-.048-.619-.143-1.835-.767-3.146-1.942-3.895-3.493-.363-.75-.245-1.24.392-1.638.362-.227 1.036-.648.989-1.455-.054-.916-2.25-3.672-3.174-3.985a1.948 1.948 0 00-1.225-.004C1.643 1.874.88 2.452.5 3.216c-.368.738-.351 1.606.048 2.508 1.154 2.608 2.776 4.882 4.821 6.758 2.002 1.837 4.463 3.342 7.314 4.472.257.102.527.157.723.198l.168.036a.304.304 0 00.07.01h.023c1.341 0 2.951-1.129 3.446-2.415.433-1.127-.358-1.683-.994-2.13zm-5.684-7.73c-.23.006-.707.017-.875.465-.079.21-.07.39.028.54.142.219.415.286.663.323.9.133 1.361.59 1.454 1.441.043.397.333.674.705.674a.754.754 0 00.084-.005c.447-.05.664-.352.645-.9.007-.573-.318-1.222-.871-1.74-.556-.519-1.225-.811-1.833-.798z"/></g><defs><clipPath id="clip0"><path fill="#fff" transform="translate(0 .621)" d="M0 0h18v16.575H0z"/></clipPath></defs></svg>