<svg width="45" height="45" fill="none" xmlns="http://www.w3.org/2000/svg"><path d="M18.589 43.473a.885.885 0 00-.622-.258.884.884 0 00-.621.258.886.886 0 00-.258.621.882.882 0 00.879.879.885.885 0 00.622-.258.886.886 0 00.257-.621.886.886 0 00-.257-.621zM5.098 27.524a.879.879 0 00-.88.88v8.159a.879.879 0 001.759 0v-8.16a.879.879 0 00-.88-.879zm.621-3.404a.886.886 0 00-.621-.258.885.885 0 00-.622.258.884.884 0 00-.257.621.89.89 0 00.257.622c.164.163.39.257.622.257a.885.885 0 00.621-.257.886.886 0 00.258-.622.885.885 0 00-.258-.621z" fill="#10CFC8"/><path d="M45 23.791a4.313 4.313 0 00-3.516-4.232v-5.7a4.4 4.4 0 00-4.394-4.394h-4.593l-9.18-9.18a.88.88 0 00-1.244 0L20.03 2.326 17.987.284a.879.879 0 00-1.242 0L7.508 9.52a.875.875 0 00-.302-.055H4.395a4.4 4.4 0 00-4.39 4.586.876.876 0 00-.005.092v26.435a4.4 4.4 0 004.395 4.395h9.873a.879.879 0 100-1.758H4.395a2.64 2.64 0 01-2.637-2.637V17.373a4.372 4.372 0 002.637.881l18.397.018h9.985a.907.907 0 00.086-.004l.005-.001a2.64 2.64 0 012.376 2.624v5.45H24.61a4.4 4.4 0 00-4.394 4.394 4.4 4.4 0 004.394 4.394h10.635v5.45a2.64 2.64 0 01-2.637 2.636H21.65a.879.879 0 100 1.758h10.957a4.4 4.4 0 004.395-4.395v-.351h.088a4.4 4.4 0 004.394-4.395v-.791A4.402 4.402 0 0045 30.735v-6.768c0-.018 0-.037-.002-.055.002-.04.002-.08.002-.12zM20.99 3.855l1.705-1.706 1.883 1.883a3.663 3.663 0 01-3.673.054.879.879 0 00.084-.231zM1.757 13.86a2.64 2.64 0 012.637-2.637h1.411L2.02 15.008a2.62 2.62 0 01-.263-1.148zm2.637 2.636c-.402 0-.783-.09-1.124-.252L17.366 2.15l1.422 1.421L5.862 16.497H4.395zm8.295 0a5.494 5.494 0 018.535 0H12.69zm18.398 0H23.33a7.222 7.222 0 00-1.244-1.667 7.206 7.206 0 00-5.129-2.124 7.206 7.206 0 00-5.129 2.124 7.216 7.216 0 00-1.244 1.667H8.348L19.544 5.3a5.4 5.4 0 003.151 1.011 5.399 5.399 0 003.151-1.01l5.74 5.738a5.425 5.425 0 00-.498 5.457zm1.765-.422a3.662 3.662 0 010-3.767l1.884 1.883-1.884 1.884zm1.639.847l2.109-2.109a.88.88 0 000-1.243l-2.346-2.346h2.835a2.64 2.64 0 012.637 2.636V26.34h-2.725v-5.45a4.4 4.4 0 00-2.51-3.969zm5.235 18.911a2.64 2.64 0 01-2.637 2.637h-.088v-3.34h2.725v.703zm3.515-5.098a2.64 2.64 0 01-2.636 2.637H24.608a2.64 2.64 0 01-2.636-2.637 2.64 2.64 0 012.636-2.636h16.084a4.29 4.29 0 002.55-.837v3.474zm-1.758-4.52v-4.845a2.553 2.553 0 011.758 2.422c0 1.13-.738 2.089-1.758 2.423z" fill="#10CFC8"/><path d="M25.407 30.113a.886.886 0 00-.622-.257.885.885 0 00-.621.257.886.886 0 00-.258.622.882.882 0 00.879.878.885.885 0 00.622-.257.885.885 0 00.257-.621.886.886 0 00-.258-.622zm.395-19.03a.879.879 0 00-1.243 0l-1.527 1.527a.879.879 0 101.243 1.243l1.527-1.527a.879.879 0 000-1.243z" fill="#10CFC8"/></svg>